  0
SECTION
  2
HEADER
  9
$ACADVER
  1
AC1009
  9
$INSBASE
 10
0.0
 20
0.0
 30
0.0
  9
$EXTMIN
 10
0.0
 20
0.0
 30
0.0
  9
$EXTMAX
 10
0.0
 20
0.0
 30
0.0
  0
ENDSEC
  0
SECTION
  2
TABLES
  0
TABLE
  2
VPORT
 70
1
  0
VPORT
  2
*ACTIVE
 70
0
 10
0.0
 20
0.0
 11
1.0
 21
1.0
 12
-5.0
 22
1.0
 13
0.0
 23
0.0
 14
0.1
 24
0.1
 15
0.1
 25
0.1
 16
0.0
 26
0.0
 36
1.0
 17
0.0
 27
0.0
 37
0.0
 40
10.0
 41
1.0
 42
50.0
 43
0.0
 44
0.0
 50
0.0
 51
0.0
 71
0
 72
100
 73
1
 74
1
 75
0
 76
0
 77
0
 78
0
  0
ENDTAB
  0
TABLE
  2
LTYPE
 70
8
  0
LTYPE
  2
CONTINUOUS
 70
0
  3
Solid line
 72
65
 73
0
 40
0.0
  0
LTYPE
  2
DOT
 70
0
  3
. . . . . . .
 72
65
 73
2
 40
0.25
 49
0.0
 49
-0.25
  0
LTYPE
  2
DASHED
 70
0
  3
__ __ __ __ __
 72
65
 73
2
 40
0.8
 49
0.5
 49
-0.3
  0
LTYPE
  2
DASHDOT
 70
0
  3
__ . __ . __ .
 72
65
 73
4
 40
1.0
 49
0.5
 49
-0.25
 49
0.0
 49
-0.25
  0
LTYPE
  2
DIVIDE
 70
0
  3
____ . . ____ . . 
 72
65
 73
6
 40
1.25
 49
0.5
 49
-0.25
 49
0.0
 49
-0.25
 49
0.0
 49
-0.25
  0
LTYPE
  2
BORDER
 70
0
  3
__ __ . __ __ . 
 72
65
 73
6
 40
1.75
 49
0.5
 49
-0.25
 49
0.5
 49
-0.25
 49
0.0
 49
-0.25
  0
LTYPE
  2
HIDDEN
 70
0
  3
__ __ __ __ __
 72
65
 73
2
 40
0.4
 49
0.25
 49
-0.25
  0
LTYPE
  2
CENTER
 70
0
  3
____ _ ____ _ __
 72
65
 73
4
 40
2.0
 49
1.25
 49
-0.25
 49
0.25
 49
-0.25
  0
ENDTAB
  0
TABLE
  2
LAYER
 70
1
  0
LAYER
  2
PYDXF
 70
64
 62
7
  6
continuous
  0
ENDTAB
  0
TABLE
  2
STYLE
 70
1
  0
STYLE
  2
STANDARD
 70
0
 40
0
 41
1.0
 50
0.0
 71
0
 42
1
 3
ARIAL.TTF
 4

  0
ENDTAB
  0
TABLE
  2
VIEW
 70
1
  0
VIEW
  2
BF_TOPVIEW
 70
0
 40
120.0
 10
0.0
 20
0.0
 41
200.0
 11
0.0
 21
0.0
 31
1.0
 12
0.0
 22
0.0
 32
0.0
 42
50.0
 43
0.0
 44
0.0
 50
0.0
 71
0
  0
ENDTAB
  0
ENDSEC
  0
SECTION
  2
BLOCKS
  0
ENDSEC
  0
SECTION
  2
ENTITIES
  0
3DFACE
  8
0
 10
0.03517612814903259
 20
0.07900489866733551
 30
0.003649570746347308
 11
0.03517612814903259
 21
0.08960707485675812
 31
0.014251741580665112
 12
0.08017738908529282
 22
0.08960707485675812
 32
0.014251741580665112
 13
0.08017738908529282
 23
0.08960707485675812
 33
0.014251741580665112
  0
3DFACE
  8
0
 10
0.08017738908529282
 20
0.08430473506450653
 30
0.008949404582381248
 11
0.08017738908529282
 21
0.07900489866733551
 31
0.003649570746347308
 12
0.03517612814903259
 22
0.07900489866733551
 32
0.003649570746347308
 13
0.03517612814903259
 23
0.07900489866733551
 33
0.003649570746347308
  0
3DFACE
  8
0
 10
0.08017738908529282
 20
0.08960707485675812
 30
0.014251741580665112
 11
0.08017738908529282
 21
0.08430473506450653
 31
0.008949404582381248
 12
0.03517612814903259
 22
0.07900489866733551
 32
0.003649570746347308
 13
0.03517612814903259
 23
0.07900489866733551
 33
0.003649570746347308
  0
3DFACE
  8
0
 10
0.08017738908529282
 20
0.07900489866733551
 30
0.003649570746347308
 11
0.08017738908529282
 21
0.08430473506450653
 31
0.008949404582381248
 12
0.11517719179391861
 22
0.08430473506450653
 32
0.008949404582381248
 13
0.11517719179391861
 23
0.08430473506450653
 33
0.008949404582381248
  0
3DFACE
  8
0
 10
0.08017738908529282
 20
0.07900489866733551
 30
0.003649570746347308
 11
0.11517719179391861
 21
0.08430473506450653
 31
0.008949404582381248
 12
0.11517719179391861
 22
0.07900489866733551
 32
0.003649570746347308
 13
0.11517719179391861
 23
0.07900489866733551
 33
0.003649570746347308
  0
3DFACE
  8
0
 10
0.08017738908529282
 20
0.08889996260404587
 30
0.014958848245441914
 11
0.03517612814903259
 21
0.08889996260404587
 31
0.014958848245441914
 12
0.03517612814903259
 22
0.07829779386520386
 32
0.004356677643954754
 13
0.03517612814903259
 23
0.07829779386520386
 33
0.004356677643954754
  0
3DFACE
  8
0
 10
0.03517612814903259
 20
0.07829779386520386
 30
0.004356677643954754
 11
0.08017738908529282
 21
0.07829779386520386
 31
0.004356677643954754
 12
0.08017738908529282
 22
0.08359763026237488
 32
0.00965651124715805
 13
0.08017738908529282
 23
0.08359763026237488
 33
0.00965651124715805
  0
3DFACE
  8
0
 10
0.03517612814903259
 20
0.07829779386520386
 30
0.004356677643954754
 11
0.08017738908529282
 21
0.08359763026237488
 31
0.00965651124715805
 12
0.08017738908529282
 22
0.08889996260404587
 32
0.014958848245441914
 13
0.08017738908529282
 23
0.08889996260404587
 33
0.014958848245441914
  0
3DFACE
  8
0
 10
0.08017738908529282
 20
0.07829779386520386
 30
0.004356677643954754
 11
0.11517719179391861
 21
0.07829779386520386
 31
0.004356677643954754
 12
0.11517719179391861
 22
0.08359763026237488
 32
0.00965651124715805
 13
0.11517719179391861
 23
0.08359763026237488
 33
0.00965651124715805
  0
3DFACE
  8
0
 10
0.08017738908529282
 20
0.07829779386520386
 30
0.004356677643954754
 11
0.11517719179391861
 21
0.08359763026237488
 31
0.00965651124715805
 12
0.08017738908529282
 22
0.08359763026237488
 32
0.00965651124715805
 13
0.08017738908529282
 23
0.08359763026237488
 33
0.00965651124715805
  0
3DFACE
  8
0
 10
0.08017738908529282
 20
0.08960707485675812
 30
0.014251741580665112
 11
0.03517612814903259
 21
0.08960707485675812
 31
0.014251741580665112
 12
0.03517612814903259
 22
0.08889996260404587
 32
0.014958848245441914
 13
0.03517612814903259
 23
0.08889996260404587
 33
0.014958848245441914
  0
3DFACE
  8
0
 10
0.08017738908529282
 20
0.08960707485675812
 30
0.014251741580665112
 11
0.03517612814903259
 21
0.08889996260404587
 31
0.014958848245441914
 12
0.08017738908529282
 22
0.08889996260404587
 32
0.014958848245441914
 13
0.08017738908529282
 23
0.08889996260404587
 33
0.014958848245441914
  0
3DFACE
  8
0
 10
0.08017738908529282
 20
0.07900489866733551
 30
0.003649570746347308
 11
0.11517719179391861
 21
0.07900489866733551
 31
0.003649570746347308
 12
0.11517719179391861
 22
0.07829779386520386
 32
0.004356677643954754
 13
0.11517719179391861
 23
0.07829779386520386
 33
0.004356677643954754
  0
3DFACE
  8
0
 10
0.08017738908529282
 20
0.07900489866733551
 30
0.003649570746347308
 11
0.11517719179391861
 21
0.07829779386520386
 31
0.004356677643954754
 12
0.08017738908529282
 22
0.07829779386520386
 32
0.004356677643954754
 13
0.08017738908529282
 23
0.07829779386520386
 33
0.004356677643954754
  0
3DFACE
  8
0
 10
0.11517719179391861
 20
0.07900489866733551
 30
0.003649570746347308
 11
0.11517719179391861
 21
0.08430473506450653
 31
0.008949404582381248
 12
0.11517719179391861
 22
0.08359763026237488
 32
0.00965651124715805
 13
0.11517719179391861
 23
0.08359763026237488
 33
0.00965651124715805
  0
3DFACE
  8
0
 10
0.11517719179391861
 20
0.07900489866733551
 30
0.003649570746347308
 11
0.11517719179391861
 21
0.08359763026237488
 31
0.00965651124715805
 12
0.11517719179391861
 22
0.07829779386520386
 32
0.004356677643954754
 13
0.11517719179391861
 23
0.07829779386520386
 33
0.004356677643954754
  0
3DFACE
  8
0
 10
0.11517719179391861
 20
0.08430473506450653
 30
0.008949404582381248
 11
0.08017738908529282
 21
0.08430473506450653
 31
0.008949404582381248
 12
0.08017738908529282
 22
0.08359763026237488
 32
0.00965651124715805
 13
0.08017738908529282
 23
0.08359763026237488
 33
0.00965651124715805
  0
3DFACE
  8
0
 10
0.11517719179391861
 20
0.08430473506450653
 30
0.008949404582381248
 11
0.08017738908529282
 21
0.08359763026237488
 31
0.00965651124715805
 12
0.11517719179391861
 22
0.08359763026237488
 32
0.00965651124715805
 13
0.11517719179391861
 23
0.08359763026237488
 33
0.00965651124715805
  0
3DFACE
  8
0
 10
0.08017738908529282
 20
0.08430473506450653
 30
0.008949404582381248
 11
0.08017738908529282
 21
0.08960707485675812
 31
0.014251741580665112
 12
0.08017738908529282
 22
0.08889996260404587
 32
0.014958848245441914
 13
0.08017738908529282
 23
0.08889996260404587
 33
0.014958848245441914
  0
3DFACE
  8
0
 10
0.08017738908529282
 20
0.08430473506450653
 30
0.008949404582381248
 11
0.08017738908529282
 21
0.08889996260404587
 31
0.014958848245441914
 12
0.08017738908529282
 22
0.08359763026237488
 32
0.00965651124715805
 13
0.08017738908529282
 23
0.08359763026237488
 33
0.00965651124715805
  0
3DFACE
  8
0
 10
0.03517612814903259
 20
0.08960707485675812
 30
0.014251741580665112
 11
0.03517612814903259
 21
0.07900489866733551
 31
0.003649570746347308
 12
0.03517612814903259
 22
0.07829779386520386
 32
0.004356677643954754
 13
0.03517612814903259
 23
0.07829779386520386
 33
0.004356677643954754
  0
3DFACE
  8
0
 10
0.03517612814903259
 20
0.08960707485675812
 30
0.014251741580665112
 11
0.03517612814903259
 21
0.07829779386520386
 31
0.004356677643954754
 12
0.03517612814903259
 22
0.08889996260404587
 32
0.014958848245441914
 13
0.03517612814903259
 23
0.08889996260404587
 33
0.014958848245441914
  0
3DFACE
  8
0
 10
0.03517612814903259
 20
0.07900489866733551
 30
0.003649570746347308
 11
0.08017738908529282
 21
0.07900489866733551
 31
0.003649570746347308
 12
0.08017738908529282
 22
0.07829779386520386
 32
0.004356677643954754
 13
0.08017738908529282
 23
0.07829779386520386
 33
0.004356677643954754
  0
3DFACE
  8
0
 10
0.03517612814903259
 20
0.07900489866733551
 30
0.003649570746347308
 11
0.08017738908529282
 21
0.07829779386520386
 31
0.004356677643954754
 12
0.03517612814903259
 22
0.07829779386520386
 32
0.004356677643954754
 13
0.03517612814903259
 23
0.07829779386520386
 33
0.004356677643954754
  0
3DFACE
  8
0
 10
0.03517612814903259
 20
0.07900489866733551
 30
0.003649570746347308
 11
0.11517719179391861
 21
0.07900489866733551
 31
0.003649570746347308
 12
0.11517719179391861
 22
0.07829779386520386
 32
0.004356677643954754
 13
0.11517719179391861
 23
0.07829779386520386
 33
0.004356677643954754
  0
3DFACE
  8
0
 10
0.03517612814903259
 20
0.07900489866733551
 30
0.003649570746347308
 11
0.11517719179391861
 21
0.07829779386520386
 31
0.004356677643954754
 12
0.03517612814903259
 22
0.07829779386520386
 32
0.004356677643954754
 13
0.03517612814903259
 23
0.07829779386520386
 33
0.004356677643954754
  0
3DFACE
  8
0
 10
0.00017636269330978394
 20
0.066631980240345
 30
0.008723363280296326
 11
0.00017636269330978394
 21
0.0719343051314354
 31
0.003421036759391427
 12
0.03517615795135498
 22
0.0719343051314354
 32
0.003421036759391427
 13
0.03517615795135498
 23
0.0719343051314354
 33
0.003421036759391427
  0
3DFACE
  8
0
 10
0.00017636269330978394
 20
0.066631980240345
 30
0.008723363280296326
 11
0.03517615795135498
 21
0.0719343051314354
 31
0.003421036759391427
 12
0.03517615422606468
 22
0.066631980240345
 32
0.008723363280296326
 13
0.03517615422606468
 23
0.066631980240345
 33
0.008723363280296326
  0
3DFACE
  8
0
 10
0.03517615795135498
 20
0.06132965162396431
 30
0.01402568630874157
 11
0.03517615422606468
 21
0.066631980240345
 31
0.008723363280296326
 12
0.03517615795135498
 22
0.0719343051314354
 32
0.003421036759391427
 13
0.03517615795135498
 23
0.0719343051314354
 33
0.003421036759391427
  0
3DFACE
  8
0
 10
0.03517615795135498
 20
0.0719343051314354
 30
0.003421036759391427
 11
0.0801774114370346
 21
0.0719343051314354
 31
0.003421036759391427
 12
0.0801774114370346
 22
0.06132965162396431
 32
0.01402568630874157
 13
0.0801774114370346
 23
0.06132965162396431
 33
0.01402568630874157
  0
3DFACE
  8
0
 10
0.03517615795135498
 20
0.0719343051314354
 30
0.003421036759391427
 11
0.0801774114370346
 21
0.06132965162396431
 31
0.01402568630874157
 12
0.03517615795135498
 22
0.06132965162396431
 32
0.01402568630874157
 13
0.03517615795135498
 23
0.06132965162396431
 33
0.01402568630874157
  0
3DFACE
  8
0
 10
0.00017636269330978394
 20
0.06733908504247665
 30
0.009430469945073128
 11
0.03517615422606468
 21
0.06733908504247665
 31
0.009430469945073128
 12
0.03517615795135498
 22
0.07264140993356705
 32
0.00412814412266016
 13
0.03517615795135498
 23
0.07264140993356705
 33
0.00412814412266016
  0
3DFACE
  8
0
 10
0.00017636269330978394
 20
0.06733908504247665
 30
0.009430469945073128
 11
0.03517615795135498
 21
0.07264140993356705
 31
0.00412814412266016
 12
0.00017636269330978394
 22
0.07264140993356705
 32
0.00412814412266016
 13
0.00017636269330978394
 23
0.07264140993356705
 33
0.00412814412266016
  0
3DFACE
  8
0
 10
0.03517615795135498
 20
0.07264140993356705
 30
0.00412814412266016
 11
0.03517615422606468
 21
0.06733908504247665
 31
0.009430469945073128
 12
0.03517615795135498
 22
0.06203676015138626
 32
0.014732792973518372
 13
0.03517615795135498
 23
0.06203676015138626
 33
0.014732792973518372
  0
3DFACE
  8
0
 10
0.03517615795135498
 20
0.06203676015138626
 30
0.014732792973518372
 11
0.0801774114370346
 21
0.06203676015138626
 31
0.014732792973518372
 12
0.0801774114370346
 22
0.07264140993356705
 32
0.00412814412266016
 13
0.0801774114370346
 23
0.07264140993356705
 33
0.00412814412266016
  0
3DFACE
  8
0
 10
0.03517615795135498
 20
0.06203676015138626
 30
0.014732792973518372
 11
0.0801774114370346
 21
0.07264140993356705
 31
0.00412814412266016
 12
0.03517615795135498
 22
0.07264140993356705
 32
0.00412814412266016
 13
0.03517615795135498
 23
0.07264140993356705
 33
0.00412814412266016
  0
3DFACE
  8
0
 10
0.0801774114370346
 20
0.0719343051314354
 30
0.003421036759391427
 11
0.03517615795135498
 21
0.0719343051314354
 31
0.003421036759391427
 12
0.03517615795135498
 22
0.07264140993356705
 32
0.00412814412266016
 13
0.03517615795135498
 23
0.07264140993356705
 33
0.00412814412266016
  0
3DFACE
  8
0
 10
0.0801774114370346
 20
0.0719343051314354
 30
0.003421036759391427
 11
0.03517615795135498
 21
0.07264140993356705
 31
0.00412814412266016
 12
0.0801774114370346
 22
0.07264140993356705
 32
0.00412814412266016
 13
0.0801774114370346
 23
0.07264140993356705
 33
0.00412814412266016
  0
3DFACE
  8
0
 10
0.03517615422606468
 20
0.066631980240345
 30
0.008723363280296326
 11
0.03517615795135498
 21
0.06132965162396431
 31
0.01402568630874157
 12
0.03517615795135498
 22
0.06203676015138626
 32
0.014732792973518372
 13
0.03517615795135498
 23
0.06203676015138626
 33
0.014732792973518372
  0
3DFACE
  8
0
 10
0.03517615422606468
 20
0.066631980240345
 30
0.008723363280296326
 11
0.03517615795135498
 21
0.06203676015138626
 31
0.014732792973518372
 12
0.03517615422606468
 22
0.06733908504247665
 32
0.009430469945073128
 13
0.03517615422606468
 23
0.06733908504247665
 33
0.009430469945073128
  0
3DFACE
  8
0
 10
0.00017636269330978394
 20
0.066631980240345
 30
0.008723363280296326
 11
0.03517615422606468
 21
0.066631980240345
 31
0.008723363280296326
 12
0.03517615422606468
 22
0.06733908504247665
 32
0.009430469945073128
 13
0.03517615422606468
 23
0.06733908504247665
 33
0.009430469945073128
  0
3DFACE
  8
0
 10
0.00017636269330978394
 20
0.066631980240345
 30
0.008723363280296326
 11
0.03517615422606468
 21
0.06733908504247665
 31
0.009430469945073128
 12
0.00017636269330978394
 22
0.06733908504247665
 32
0.009430469945073128
 13
0.00017636269330978394
 23
0.06733908504247665
 33
0.009430469945073128
  0
3DFACE
  8
0
 10
0.03517615795135498
 20
0.0719343051314354
 30
0.003421036759391427
 11
0.00017636269330978394
 21
0.0719343051314354
 31
0.003421036759391427
 12
0.00017636269330978394
 22
0.07264140993356705
 32
0.00412814412266016
 13
0.00017636269330978394
 23
0.07264140993356705
 33
0.00412814412266016
  0
3DFACE
  8
0
 10
0.03517615795135498
 20
0.0719343051314354
 30
0.003421036759391427
 11
0.00017636269330978394
 21
0.07264140993356705
 31
0.00412814412266016
 12
0.03517615795135498
 22
0.07264140993356705
 32
0.00412814412266016
 13
0.03517615795135498
 23
0.07264140993356705
 33
0.00412814412266016
  0
3DFACE
  8
0
 10
0.00017636269330978394
 20
0.0719343051314354
 30
0.003421036759391427
 11
0.00017636269330978394
 21
0.066631980240345
 31
0.008723363280296326
 12
0.00017636269330978394
 22
0.06733908504247665
 32
0.009430469945073128
 13
0.00017636269330978394
 23
0.06733908504247665
 33
0.009430469945073128
  0
3DFACE
  8
0
 10
0.00017636269330978394
 20
0.0719343051314354
 30
0.003421036759391427
 11
0.00017636269330978394
 21
0.06733908504247665
 31
0.009430469945073128
 12
0.00017636269330978394
 22
0.07264140993356705
 32
0.00412814412266016
 13
0.00017636269330978394
 23
0.07264140993356705
 33
0.00412814412266016
  0
3DFACE
  8
0
 10
0.03517615795135498
 20
0.06132965162396431
 30
0.01402568630874157
 11
0.0801774114370346
 21
0.06132965162396431
 31
0.01402568630874157
 12
0.0801774114370346
 22
0.06203676015138626
 32
0.014732792973518372
 13
0.0801774114370346
 23
0.06203676015138626
 33
0.014732792973518372
  0
3DFACE
  8
0
 10
0.03517615795135498
 20
0.06132965162396431
 30
0.01402568630874157
 11
0.0801774114370346
 21
0.06203676015138626
 31
0.014732792973518372
 12
0.03517615795135498
 22
0.06203676015138626
 32
0.014732792973518372
 13
0.03517615795135498
 23
0.06203676015138626
 33
0.014732792973518372
  0
3DFACE
  8
0
 10
0.0801774114370346
 20
0.06132965162396431
 30
0.01402568630874157
 11
0.0801774114370346
 21
0.0719343051314354
 31
0.003421036759391427
 12
0.0801774114370346
 22
0.07264140993356705
 32
0.00412814412266016
 13
0.0801774114370346
 23
0.07264140993356705
 33
0.00412814412266016
  0
3DFACE
  8
0
 10
0.0801774114370346
 20
0.06132965162396431
 30
0.01402568630874157
 11
0.0801774114370346
 21
0.07264140993356705
 31
0.00412814412266016
 12
0.0801774114370346
 22
0.06203676015138626
 32
0.014732792973518372
 13
0.0801774114370346
 23
0.06203676015138626
 33
0.014732792973518372
  0
ENDSEC
  0
EOF
